HIERARCHY
ROOT Hips
{
	OFFSET -14.64140 90.27770 -84.91600
	CHANNELS 6 Xposition Yposition Zposition Zrotation Xrotation Yrotation
	JOINT Spine
	{
		OFFSET 0.00000 13.20850 -1.60436
		CHANNELS 3 Zrotation Xrotation Yrotation
		JOINT Spine1
		{
			OFFSET 0.00000 8.61716 0.00000
			CHANNELS 3 Zrotation Xrotation Yrotation
			JOINT Spine2
			{
				OFFSET 0.00000 8.61717 0.00000
				CHANNELS 3 Zrotation Xrotation Yrotation
				JOINT Spine3
				{
					OFFSET 0.00000 8.61717 0.00000
					CHANNELS 3 Zrotation Xrotation Yrotation
					JOINT Neck
					{
						OFFSET 0.00000 11.07920 1.10792
						CHANNELS 3 Zrotation Xrotation Yrotation
						JOINT Neck1
						{
							OFFSET 0.00000 7.08032 0.00000
							CHANNELS 3 Zrotation Xrotation Yrotation
							JOINT Head
							{
								OFFSET 0.00000 7.08031 0.00000
								CHANNELS 3 Zrotation Xrotation Yrotation
								End site
								{
									OFFSET 0.00000 0.00000 0.00000
								}
							}
						}
					}
					JOINT RightShoulder
					{
						OFFSET -0.01000 7.91373 5.19711
						CHANNELS 3 Zrotation Xrotation Yrotation
						JOINT RightArm
						{
							OFFSET -18.41580 0.00000 0.00000
							CHANNELS 3 Zrotation Xrotation Yrotation
							JOINT RightForeArm
							{
								OFFSET -29.11090 0.00000 0.00000
								CHANNELS 3 Zrotation Xrotation Yrotation
								JOINT RightHand
								{
									OFFSET -24.65040 0.00000 0.00000
									CHANNELS 3 Zrotation Xrotation Yrotation
									JOINT RightHandThumb1
									{
										OFFSET -5.35114 -0.85590 3.97906
										CHANNELS 3 Zrotation Xrotation Yrotation
										JOINT RightHandThumb2
										{
											OFFSET -4.52789 0.00000 0.00000
											CHANNELS 3 Zrotation Xrotation Yrotation
											JOINT RightHandThumb3
											{
												OFFSET -2.46976 0.00000 0.00000
												CHANNELS 3 Zrotation Xrotation Yrotation
												End site
												{
													OFFSET 0.00000 0.00000 0.00000
												}
											}
										}
									}
									JOINT RightHandIndex1
									{
										OFFSET -14.26970 0.00000 2.88139
										CHANNELS 3 Zrotation Xrotation Yrotation
										JOINT RightHandIndex2
										{
											OFFSET -5.48836 0.00000 0.00000
											CHANNELS 3 Zrotation Xrotation Yrotation
											JOINT RightHandIndex3
											{
												OFFSET -3.01859 0.00000 0.00000
												CHANNELS 3 Zrotation Xrotation Yrotation
												End site
												{
													OFFSET 0.00000 0.00000 0.00000
												}
											}
										}
									}
									JOINT RightHandMiddle1
									{
										OFFSET -14.26970 0.00000 -0.09147
										CHANNELS 3 Zrotation Xrotation Yrotation
										JOINT RightHandMiddle2
										{
											OFFSET -6.17441 0.00000 0.00000
											CHANNELS 3 Zrotation Xrotation Yrotation
											JOINT RightHandMiddle3
											{
												OFFSET -3.56743 0.00000 0.00000
												CHANNELS 3 Zrotation Xrotation Yrotation
												End site
												{
													OFFSET 0.00000 0.00000 0.00000
												}
											}
										}
									}
									JOINT RightHandRing1
									{
										OFFSET -12.69180 0.00000 -3.06433
										CHANNELS 3 Zrotation Xrotation Yrotation
										JOINT RightHandRing2
										{
											OFFSET -5.62556 0.00000 0.00000
											CHANNELS 3 Zrotation Xrotation Yrotation
											JOINT RightHandRing3
											{
												OFFSET -3.56744 0.00000 0.00000
												CHANNELS 3 Zrotation Xrotation Yrotation
												End site
												{
													OFFSET 0.00000 0.00000 0.00000
												}
											}
										}
									}
									JOINT RightHandPinky1
									{
										OFFSET -11.11390 0.00000 -6.03719
										CHANNELS 3 Zrotation Xrotation Yrotation
										JOINT RightHandPinky2
										{
											OFFSET -4.52789 0.00000 0.00000
											CHANNELS 3 Zrotation Xrotation Yrotation
											JOINT RightHandPinky3
											{
												OFFSET -2.46976 0.00000 0.00000
												CHANNELS 3 Zrotation Xrotation Yrotation
												End site
												{
													OFFSET 0.00000 0.00000 0.00000
												}
											}
										}
									}
								}
							}
						}
					}
					JOINT LeftShoulder
					{
						OFFSET 0.01000 7.91373 5.19711
						CHANNELS 3 Zrotation Xrotation Yrotation
						JOINT LeftArm
						{
							OFFSET 18.41580 0.00000 0.00000
							CHANNELS 3 Zrotation Xrotation Yrotation
							JOINT LeftForeArm
							{
								OFFSET 29.11090 0.00000 0.00000
								CHANNELS 3 Zrotation Xrotation Yrotation
								JOINT LeftHand
								{
									OFFSET 24.65040 0.00000 0.00000
									CHANNELS 3 Zrotation Xrotation Yrotation
									JOINT LeftHandThumb1
									{
										OFFSET 5.35114 -0.85590 3.97906
										CHANNELS 3 Zrotation Xrotation Yrotation
										JOINT LeftHandThumb2
										{
											OFFSET 4.52789 0.00000 0.00000
											CHANNELS 3 Zrotation Xrotation Yrotation
											JOINT LeftHandThumb3
											{
												OFFSET 2.46977 0.00000 0.00000
												CHANNELS 3 Zrotation Xrotation Yrotation
												End site
												{
													OFFSET 0.00000 0.00000 0.00000
												}
											}
										}
									}
									JOINT LeftHandIndex1
									{
										OFFSET 14.26970 0.00000 2.88139
										CHANNELS 3 Zrotation Xrotation Yrotation
										JOINT LeftHandIndex2
										{
											OFFSET 5.48836 0.00000 0.00000
											CHANNELS 3 Zrotation Xrotation Yrotation
											JOINT LeftHandIndex3
											{
												OFFSET 3.01859 0.00000 0.00000
												CHANNELS 3 Zrotation Xrotation Yrotation
												End site
												{
													OFFSET 0.00000 0.00000 0.00000
												}
											}
										}
									}
									JOINT LeftHandMiddle1
									{
										OFFSET 14.26970 0.00000 -0.09147
										CHANNELS 3 Zrotation Xrotation Yrotation
										JOINT LeftHandMiddle2
										{
											OFFSET 6.17440 0.00000 0.00000
											CHANNELS 3 Zrotation Xrotation Yrotation
											JOINT LeftHandMiddle3
											{
												OFFSET 3.56744 0.00000 0.00000
												CHANNELS 3 Zrotation Xrotation Yrotation
												End site
												{
													OFFSET 0.00000 0.00000 0.00000
												}
											}
										}
									}
									JOINT LeftHandRing1
									{
										OFFSET 12.69180 0.00000 -3.06433
										CHANNELS 3 Zrotation Xrotation Yrotation
										JOINT LeftHandRing2
										{
											OFFSET 5.62556 0.00000 0.00000
											CHANNELS 3 Zrotation Xrotation Yrotation
											JOINT LeftHandRing3
											{
												OFFSET 3.56744 0.00000 0.00000
												CHANNELS 3 Zrotation Xrotation Yrotation
												End site
												{
													OFFSET 0.00000 0.00000 0.00000
												}
											}
										}
									}
									JOINT LeftHandPinky1
									{
										OFFSET 11.11390 0.00000 -6.03719
										CHANNELS 3 Zrotation Xrotation Yrotation
										JOINT LeftHandPinky2
										{
											OFFSET 4.52789 0.00000 0.00000
											CHANNELS 3 Zrotation Xrotation Yrotation
											JOINT LeftHandPinky3
											{
												OFFSET 2.46976 0.00000 0.00000
												CHANNELS 3 Zrotation Xrotation Yrotation
												End site
												{
													OFFSET 0.00000 0.00000 0.00000
												}
											}
										}
									}
								}
							}
						}
					}
					JOINT pCube4
					{
						OFFSET 0.00000 10.91090 1.10792
						CHANNELS 3 Zrotation Xrotation Yrotation
						End site
						{
							OFFSET 0.00000 0.00000 0.00000
						}
					}
				}
			}
		}
	}
	JOINT RightUpLeg
	{
		OFFSET -9.98441 0.00000 0.00000
		CHANNELS 3 Zrotation Xrotation Yrotation
		JOINT RightLeg
		{
			OFFSET 0.00000 -42.11790 0.00000
			CHANNELS 3 Zrotation Xrotation Yrotation
			JOINT RightFoot
			{
				OFFSET 0.00000 -45.00020 -0.00001
				CHANNELS 3 Zrotation Xrotation Yrotation
				JOINT RightForeFoot
				{
					OFFSET 0.00000 -3.74820 0.00000
					CHANNELS 3 Zrotation Xrotation Yrotation
					JOINT RightToeBase
					{
						OFFSET 0.00000 0.06325 14.43120
						CHANNELS 3 Zrotation Xrotation Yrotation
						End site
						{
							OFFSET 0.00000 0.00000 0.00000
						}
					}
				}
			}
		}
	}
	JOINT LeftUpLeg
	{
		OFFSET 9.98441 0.00000 0.00000
		CHANNELS 3 Zrotation Xrotation Yrotation
		JOINT LeftLeg
		{
			OFFSET 0.00000 -42.11800 0.00000
			CHANNELS 3 Zrotation Xrotation Yrotation
			JOINT LeftFoot
			{
				OFFSET 0.00000 -45.00070 0.00000
				CHANNELS 3 Zrotation Xrotation Yrotation
				JOINT LeftForeFoot
				{
					OFFSET 0.00000 -3.74824 0.00000
					CHANNELS 3 Zrotation Xrotation Yrotation
					JOINT LeftToeBase
					{
						OFFSET 0.00000 0.06325 14.43110
						CHANNELS 3 Zrotation Xrotation Yrotation
						End site
						{
							OFFSET 0.00000 0.00000 0.00000
						}
					}
				}
			}
		}
	}
}
MOTION
Frames: 4
Frame Time: 0.050000
0.04823038413419263 0.0283549714836874 0.04340687707700181 -0.011199269292633807 -0.007683568958420122 0.0046726645176525545 0.34580439940399216 1.4601580303281012 -1.3526724959925847 -0.4981616392343967 3.7543492896031205 0.31306406031680883 -0.7217633181048855 -1.6041785967203017 0.7995070776683514 -0.878057511664255 -0.49698729290128435 -0.35558652109514516 -0.3181583314012621 12.817637735880558 0.19717152056112902 0.6661513082061893 -0.572721216027429 -0.08392420878469684 0.7589064865290115 -16.163757638651592 -0.03658675272676709 -2.7597198565245042 1.3948339530020544 -15.266070520542414 72.37834245478767 14.703833591708419 5.240352201995718 13.299985762042208 5.576719388624705 89.53431500989798 23.71463938798789 -0.31879231477801206 -4.9791077698056 4.498844123837755 -0.08951898211998646 -1.580562735350266 -0.02259115615225129 -0.036299027752061855 -56.243794682067815 -0.03410285341939434 -0.020527397215444353 -56.27538157600334 -38.77767809281518 0.01645506249652709 -0.02354576952797039 0.04114887974905489 0.030522456854852085 0.03364288640226152 0.021709245819756886 -0.020811221269241932 -0.01328407812423469 -36.718139733091235 -0.005020916302113556 -0.0481219600036878 0.02077421736289883 0.0007375501212267146 -0.03514301953250235 0.023052299302628476 -0.010246209185477436 0.006862444064751684 -19.74549573782364 -0.017136806005370497 0.03145005614742813 0.0045951311522339335 0.0419367115907393 -0.022830684159908125 0.028183106294083115 -0.0033210892500023913 -0.021777097090948817 24.040464561082945 0.024761506252055917 -0.013135983541092282 28.822242373675817 0.01711158066719401 0.034958629616253255 28.9092290051201 0.011740149771176085 0.04846382823939323 5.49266410381733 1.552280423332287 14.099828655462463 -76.93700174816627 26.58678840361965 -8.507363116829264 -58.94787088988732 15.572741647078947 -103.4277990878076 -21.273575078526175 0.5842130490524774 1.032206644471182 -0.4721307418317183 0.05747773268977806 -8.095916097180337 0.033169567642359454 0.009516696658671962 44.573353591282874 0.01429839174254827 0.020124912782625022 44.57719393815199 12.46138660489586 0.020421599175205585 0.003278152735548697 -0.037489963532921736 -0.004091749084597442 -0.012586014387029425 -0.007390037591736659 0.02707872902363962 0.040754361622988323 11.097261050650387 -0.0014385134775180962 -0.020705878832980692 0.04218202609774964 -0.020766615793521615 -0.02482675402077244 0.046127796576628494 0.020656326129832137 -0.036083992695475436 4.735770541380495 0.010509718013028883 -0.020513996576983346 -0.023482568565361964 -0.03379100446337931 0.03157979677151683 0.014770291618266363 -0.018273017829795537 0.03936526726526786 -5.589917317827084 0.0030933399943563595 -0.014906048130446475 -6.73532832077023 -0.003060670934523193 -0.024058621667531623 -6.7650882029687365 0.009966208979241045 -0.041909357446858315 -0.032209173610948626 0.017694186392150434 -0.020409226106377635 8.069469990461124 3.510523132325093 -19.24525666484178 0.01309219994343377 10.428534625068751 0.05477338301044239 -5.6303337659511765 -15.683419670846641 3.2342315806146575 -0.017101678550215133 0.008742687869599261 -0.0007502535690066169 -0.03045084877721521 4.712872403863081 0.02476047696260436 12.431605452414912 -8.214847313546812 6.917024367325713 -0.038499659225241165 46.409288645761634 -0.02016146568716201 -4.284758557370663 -14.788611688886107 -3.8288458317681506 0.007414709864916102 -0.007588208037723929 -0.03336609269275337 -0.03750565683078711 -10.765510221259877 0.008255215061026364 
0.010983170763837768 0.019408225000974832 0.0470032578730327 0.006321499376856603 0.003951849169881276 0.02939762721888677 -0.07694680139606525 1.414508894222373 -1.2925802890893627 -0.5225302245534478 3.8492550319820107 0.3617175716618868 -0.7249621257931746 -1.6547988751265368 0.7456201537417535 -0.8361704950015307 -0.5453555548117012 -0.4367955306023969 -0.3688799622276301 13.016244724696135 0.2531629886589554 0.7161430031938093 -0.6068776499448949 0.09343750003036326 0.7686933983696337 -16.181981984966207 -0.041535526796326355 -2.3113027383327336 1.3019550594263734 -15.220177479283743 71.95038727362949 14.932799817127924 5.199140540022078 12.54804491804213 6.065570451852654 87.57856743822487 24.031757245651104 -0.29301490625257015 -4.727729331804693 4.55353330371489 -0.12281985049742133 -1.6417936788873544 -0.01571131175254358 0.01401509389138489 -56.237498288817825 0.018542318487858176 0.017473825281480473 -56.2514955326327 -38.75067724266601 0.021675430305006422 0.004307738388440762 -0.01599899562746093 -0.009725729014321898 -0.00859994483496534 0.02115287004086979 0.028880136617612795 0.031148299043083656 -36.72059662140895 0.04184970861287962 0.006959115041651147 -0.028456849781742868 0.01309580965321289 0.021555969898767503 -0.013613342851789665 -0.009844101055541097 -0.03945806615223949 -19.74546837330365 -0.01926088034806379 0.03230297350162026 -0.030021831620927374 -0.025752691658612957 -0.020069060644026457 -0.01849393090563161 0.0471362948334327 -0.010151918173860554 24.06042337143537 -0.038287384209345604 0.02336341314302571 28.89350981792827 0.04246454586718554 -0.027693136102978168 28.90763560240655 0.024967501621794383 0.02632796426441673 5.22700978667526 1.4634106498287645 14.12410886241253 -76.89708571679068 26.918303781746925 -8.798388396859728 -55.604354627106616 14.587459526666235 -102.61883654443196 -21.172206315650225 0.8903297255720075 0.7871171601094039 -0.48411890226728155 0.10766214604652471 -8.1350702959165 -0.012069566759307858 0.04728259653671728 44.5640609125933 -0.0412799251138992 0.023665256509361472 44.53822858696205 12.417401287496029 -0.025030117290684627 -0.02156130232028964 0.013848239470606332 -0.013645806068285535 0.014136481827289018 -0.02121580667188967 0.01614339652940663 0.013253071482135802 11.062171561131589 -0.018327678142985204 -0.03719015743750079 -0.012565873819256087 -0.0007185109764971948 -0.020977386742773267 -0.017139568300840426 -0.027270122497902453 -0.028236192934991605 4.790062959856296 0.03821960357838886 0.0037455713745586966 -0.009588439577921324 0.025550392583169407 -5.075013378049893e-05 5.701572234969309e-06 0.04487903347048547 -0.0233605753602762 -5.594623401402781 0.020782047572726944 0.01662207998985085 -6.723026705496458 -0.01013683838733612 -0.004896898810561005 -6.712741166010751 0.02769143173716583 0.0013106417356266535 -0.013175772817700607 0.04313322820393101 -0.023200784551835715 8.0651803272733 3.4492222223950546 -19.25674304317093 -0.005388290690475378 10.380813797480267 -0.01456857837985025 -5.640759294256259 -15.645446504352307 3.2376113697290143 -0.034883375331588744 -0.019629558912684163 -0.007681832817452075 -0.04781674167146122 4.660322357689258 0.04727920391622529 12.450877012652832 -8.269354351661399 6.867080100068152 -0.03397961086107784 46.40349314211189 0.01733226731699776 -4.348155116343865 -14.794238906226962 -3.797623967106517 0.002698620245919858 -0.047177383606437695 -0.018979209518594657 -0.00011484540038148822 -10.780464124755685 0.010166141635522572 
-0.03605289447034267 0.03642674552584859 0.03532839565243558 -0.047809826252173934 -0.017491468103468508 0.017762124015070515 -0.4619487059334135 1.3847928391351447 -1.2022935650026505 -0.5239393000428728 3.9089188555179764 0.28377530905772475 -0.7183184391295385 -1.682454044496632 0.6193066939997303 -0.8525042564593834 -0.5210452099957399 -0.45960704243095857 -0.4379259045891737 13.205541066077204 0.32842735697171127 0.6499594955981625 -0.6839925773925105 0.1585760919459674 0.7829927284337501 -16.221991834807227 -0.02244126458750921 -1.7884166370672667 1.0562123438924975 -15.178827405726272 71.45373250331848 14.215292657924115 5.275723900422531 12.340932496665152 7.0435426845811495 85.04445940201356 24.692612043287806 -0.33262592965958837 -4.293881647931761 4.5019075900580505 -0.12846032642492558 -1.5642199771911967 -0.0014988905485201077 -0.02781578932732163 -56.215847399498415 0.02728644717882759 -0.005650779221742785 -56.234765317879074 -38.72205934668853 0.009134973414088372 0.041419089215699666 0.049755500267135974 -0.02779926100133759 -0.011781037203696424 -0.014595157307825766 -0.02705912995585535 0.032460216315771936 -36.659373839464344 -0.012214094455851254 0.024903733896535062 0.043743818017417314 -0.0440439033404626 -0.008413948985971559 0.02675903733696728 0.03373523392040428 0.012315257257878675 -19.778090610136005 -0.026841456237768336 -0.03314803643382604 -0.009412896801302702 -0.03133682429681822 0.03229219876774421 0.04246409342376093 -0.0003516582877425143 0.023188385468568818 24.04606445396101 -0.03637403322351765 -0.036251150292630256 28.89386837681452 -0.03012752583958941 -0.004450445507627633 28.913228882169523 0.01865808282018077 0.025848240170291668 4.949409834294008 1.4274138590200616 14.209145142579628 -76.75833298490222 26.912781116223314 -9.202666038261412 -51.73196508405969 13.587908108392126 -101.80799741523872 -21.089569972643925 1.7304522330221073 0.2780272180181597 -0.4418590308512598 0.0719206583734705 -8.10631474351728 -0.0016099954144978953 0.0009464714097096025 44.52789295831284 0.04808666499134053 -0.010031791747303162 44.57369540379903 12.417488396382563 -0.020783954408423334 -0.016668810408271978 0.01918944450930852 -0.015084217409382318 0.009350494543154467 0.0017546296752883237 0.03345344719717323 8.014942450929025e-05 11.14280867735559 -0.03227238604829417 -0.008245955084625113 0.01318044520856029 -0.0022189264042090885 -0.021470721097897452 0.001206408580027101 0.04568366169995832 -0.04312550879481386 4.8021558753660765 -0.00033445169102782056 -0.015477186180332645 -0.017642865486952215 -0.03852459143254056 -0.035117623085838524 -0.030539083623829167 0.026056454439388223 -0.04931313119354851 -5.643000522681846 -0.009763490242439806 -0.01820605779856618 -6.7254239701395 -0.018774276582068747 0.011862022438682979 -6.749902424033319 -0.02171919826180751 -0.0005314662649777319 0.019442378209273872 -0.02623641162920089 0.01434963248710804 8.07931364196338 3.4655234359089815 -19.238133634800796 0.0440582083876075 10.388978945049853 0.030988336975520312 -5.584307867740307 -15.697263524559474 3.1783930755758605 -0.02296959554691555 -0.035036949191364686 -0.004720141551105572 -0.004659736618414798 4.727332835753057 0.04027742802616554 12.500218787661765 -8.231257894932815 6.890528790940865 -0.010575366263114673 46.398535302670034 -0.043042104094106866 -4.374598905133515 -14.75863900501793 -3.8072821694113808 0.017654258399482824 0.046822387652959936 0.01702884197222969 0.03986610055506465 -10.705729843827491 0.010534340007700517 
-0.00017243742762157644 0.023873805417658683 -0.003708302441981945 -0.021209253127429578 -0.03582944312729921 0.04416032829730393 -0.6927404204182652 1.4860984254095018 -1.240068379204768 -0.4326010976723574 3.9396419261020634 0.322643601263042 -0.7064446998666563 -1.7290283979358898 0.5363423846031463 -0.8170858177019091 -0.5473742457339269 -0.4193343584376623 -0.40499192080807955 13.408513482266827 0.33936748114321 0.6674152764221839 -0.7391625549422755 0.349976519865501 0.7351130418249191 -16.30334787764727 -0.041626144060676246 -1.7490504682994754 1.048119506998861 -15.257790470589933 71.36156410022274 12.433574970175712 5.579600963841986 12.186796495100952 8.342788678830312 82.40546412465484 25.118774229481478 -0.29847829877721066 -3.6159734718573797 4.531872771429404 -0.15911191694757326 -1.6296654795169905 -0.041172799170312836 -0.0019808447054189588 -56.21033019573339 0.004639234887239817 -0.03138395782377773 -56.260042681279515 -38.72577124787188 0.017588819485940953 0.01206152174182947 0.046101598493375855 0.04079264952956555 0.007059033493921355 0.01427153084339617 0.006323161102718225 -0.030595359192432576 -36.646937657357 0.02422943213850398 -0.027091064237534972 0.027432164477910692 0.00682234888733077 -0.044060985561558574 -0.01396076229699918 0.02337032132880636 -0.0348533803578442 -19.734733685927015 0.012675125279286038 0.0036999975520030084 0.003196021153208675 -0.018646097681658955 -0.007613140191617985 -0.0119623447552094 -0.011955409192552688 -0.010110949865272268 24.0789589321898 0.04158938333676713 -0.04267112967970551 28.87014404726214 -0.023978972620870172 -0.04096258567850591 28.854100247712797 -0.023448763675460796 -0.015632923502083538 4.884541094387934 1.3794227098364489 14.224796000985124 -76.64471488090524 26.81882506695476 -9.962597583686726 -47.53688249182551 12.593791542437874 -100.97840384552595 -21.07384757328128 2.3553353446807894 -0.21490332365701414 -0.49058625887942703 0.03063475997520121 -8.168967745642927 0.0013831403042235697 0.04763881771505199 44.59761786452166 0.02295715239684278 -0.00997683019392006 44.59662051752244 12.433917777559705 -0.016229316604761703 0.03087546168780623 -0.0289168111676227 -0.017960942312002612 -0.03884468180704843 -0.045063549881724445 0.015387764793155546 -0.021112154952285987 11.144033610616725 0.0013409847540488376 0.0449368550004244 -0.019967356667326786 0.03180194141836646 0.009726940155462648 -0.03899459915231873 0.04069549552295263 0.025910696608142395 4.745847198268084 -0.03896377038253969 0.0216449816280926 -0.0028863276476906487 -0.04881231417940919 0.011332424684069425 0.02675194297263723 -0.027280258692390483 0.027232272684535375 -5.610795280085326 -0.018531481984404824 0.021975303089810792 -6.756522602478432 0.00493551513810591 0.0352232626894047 -6.742949567775478 -0.02645831493517314 0.045266877419475375 -0.03135866094650937 -0.03527263446344279 -0.031125656529692323 8.063062146125363 3.4460610820432223 -19.210851417646953 0.035867126904279414 10.414273832810233 0.03665785256083391 -5.576925172687596 -15.691033958535137 3.2347394422898526 -0.0017130648325196236 0.011652692097152294 -0.02286362043495904 -0.020873563948571254 4.737142206485706 0.015838871175460126 12.475449275509241 -8.255814710546177 6.841860061264756 0.013417724983795008 46.378311659160204 -0.02243109779111508 -4.368903917531565 -14.718273247696773 -3.7864617643236467 -0.042319626406004 -0.009630311239872421 0.03119460762350204 0.012474393483230385 -10.748863750470544 -0.029382389365234143 
